<svg class="SVGLogo" viewBox="0 0 128 104" fill="none" xmlns="http://www.w3.org/2000/svg">
  <path class="SVGLogo-S" d="M57.3636 33.8182C57.0606 30.4848 55.7121 27.8939 53.3182 26.0455C50.9545 24.1667 47.5758 23.2273 43.1818 23.2273C40.2727 23.2273 37.8485 23.6061 35.9091 24.3636C33.9697 25.1212 32.5152 26.1667 31.5455 27.5C30.5758 28.803 30.0758 30.303 30.0455 32C29.9848 33.3939 30.2576 34.6212 30.8636 35.6818C31.5 36.7424 32.4091 37.6818 33.5909 38.5C34.803 39.2879 36.2576 39.9848 37.9545 40.5909C39.6515 41.197 41.5606 41.7273 43.6818 42.1818L51.6818 44C56.2879 45 60.3485 46.3333 63.8636 48C67.4091 49.6667 70.3788 51.6515 72.7727 53.9545C75.197 56.2576 77.0303 58.9091 78.2727 61.9091C79.5152 64.9091 80.1515 68.2727 80.1818 72C80.1515 77.8788 78.6667 82.9242 75.7273 87.1364C72.7879 91.3485 68.5606 94.5758 63.0455 96.8182C57.5606 99.0606 50.9394 100.182 43.1818 100.182C35.3939 100.182 28.6061 99.0152 22.8182 96.6818C17.0303 94.3485 12.5303 90.803 9.31818 86.0455C6.10606 81.2879 4.45455 75.2727 4.36364 68H25.9091C26.0909 71 26.8939 73.5 28.3182 75.5C29.7424 77.5 31.697 79.0152 34.1818 80.0455C36.697 81.0758 39.6061 81.5909 42.9091 81.5909C45.9394 81.5909 48.5152 81.1818 50.6364 80.3636C52.7879 79.5455 54.4394 78.4091 55.5909 76.9545C56.7424 75.5 57.3333 73.8333 57.3636 71.9545C57.3333 70.197 56.7879 68.697 55.7273 67.4545C54.6667 66.1818 53.0303 65.0909 50.8182 64.1818C48.6364 63.2424 45.8485 62.3788 42.4545 61.5909L32.7273 59.3182C24.6667 57.4697 18.3182 54.4848 13.6818 50.3636C9.04545 46.2121 6.74242 40.6061 6.77273 33.5455C6.74242 27.7879 8.28788 22.7424 11.4091 18.4091C14.5303 14.0758 18.8485 10.697 24.3636 8.27273C29.8788 5.84848 36.1667 4.63636 43.2273 4.63636C50.4394 4.63636 56.697 5.86363 62 8.31818C67.3333 10.7424 71.4697 14.1515 74.4091 18.5455C77.3485 22.9394 78.8485 28.0303 78.9091 33.8182H57.3636Z"/>
  <path class="SVGLogo-R" d="M45.0455 99V5.90909H83.5C90.4697 5.90909 96.4849 7.16666 101.545 9.68182C106.636 12.1667 110.561 15.7424 113.318 20.4091C116.076 25.0455 117.455 30.5455 117.455 36.9091C117.455 43.3636 116.045 48.8485 113.227 53.3636C110.409 57.8485 106.409 61.2727 101.227 63.6364C96.0455 65.9697 89.9091 67.1364 82.8182 67.1364H58.5V49.4091H78.6364C82.0303 49.4091 84.8636 48.9697 87.1364 48.0909C89.4394 47.1818 91.1818 45.8182 92.3636 44C93.5455 42.1515 94.1364 39.7879 94.1364 36.9091C94.1364 34.0303 93.5455 31.6515 92.3636 29.7727C91.1818 27.8636 89.4394 26.4394 87.1364 25.5C84.8333 24.5303 82 24.0455 78.6364 24.0455H67.5455V99H45.0455ZM97.4545 56.4545L120.636 99H96.0909L73.3636 56.4545H97.4545Z"/>
</svg>